<?xml version="1.0" standalone="no"?><!DOCTYPE svg PUBLIC "-//W3C//DTD SVG 1.1//EN" "http://www.w3.org/Graphics/SVG/1.1/DTD/svg11.dtd"><svg t="1676013381808" class="icon" viewBox="0 0 1024 1024" version="1.1" xmlns="http://www.w3.org/2000/svg" p-id="3731" xmlns:xlink="http://www.w3.org/1999/xlink" width="200" height="200"><path d="M750.92992 273.05984V102.4H273.07008v170.65984L102.4 751.93344c226.06848 226.2016 592.896 226.27328 819.2 0L750.92992 273.05984z m-409.6-102.4h341.34016v68.27008H341.32992v-68.27008z m170.5984 682.67008c-41.90208 0-82.90304-5.33504-122.56256-15.06304L443.72992 512h-68.25984l-50.944 305.60256c-51.456-20.26496-99.72736-48.67072-142.70464-85.1968L333.37344 307.2h357.26336l151.54176 425.19552a506.2144 506.2144 0 0 1-142.73536 85.1968h0.04096L648.52992 512h-68.25984l54.36416 326.1952h0.04096a511.39584 511.39584 0 0 1-122.69568 15.13472h-0.0512z" p-id="3732"></path></svg>